<mxfile host="Electron" agent="Mozilla/5.0 (Macintosh; Intel Mac OS X 10_15_7) AppleWebKit/537.36 (KHTML, like Gecko) draw.io/28.0.4 Chrome/138.0.7204.97 Electron/37.2.1 Safari/537.36" version="28.0.4">
  <diagram name="Page-1" id="RFhC4MRW-w11SZuao0eH">
    <mxGraphModel dx="1846" dy="1799" grid="1" gridSize="10" guides="1" tooltips="1" connect="1" arrows="1" fold="1" page="1" pageScale="1" pageWidth="827" pageHeight="583" math="0" shadow="1">
      <root>
        <mxCell id="0" />
        <mxCell id="1" parent="0" />
        <mxCell id="E6VRsFR_yzMTvi04gVFN-2" value="AWS Cloud" style="points=[[0,0],[0.25,0],[0.5,0],[0.75,0],[1,0],[1,0.25],[1,0.5],[1,0.75],[1,1],[0.75,1],[0.5,1],[0.25,1],[0,1],[0,0.75],[0,0.5],[0,0.25]];outlineConnect=0;gradientColor=none;html=1;whiteSpace=wrap;fontSize=12;fontStyle=0;container=1;pointerEvents=0;collapsible=0;recursiveResize=0;shape=mxgraph.aws4.group;grIcon=mxgraph.aws4.group_aws_cloud_alt;strokeColor=#232F3E;fillColor=default;verticalAlign=top;align=left;spacingLeft=30;fontColor=#232F3E;dashed=0;" vertex="1" parent="1">
          <mxGeometry x="320" y="80" width="1240" height="920" as="geometry" />
        </mxCell>
        <mxCell id="E6VRsFR_yzMTvi04gVFN-3" value="Region" style="points=[[0,0],[0.25,0],[0.5,0],[0.75,0],[1,0],[1,0.25],[1,0.5],[1,0.75],[1,1],[0.75,1],[0.5,1],[0.25,1],[0,1],[0,0.75],[0,0.5],[0,0.25]];outlineConnect=0;gradientColor=none;html=1;whiteSpace=wrap;fontSize=12;fontStyle=0;container=1;pointerEvents=0;collapsible=0;recursiveResize=0;shape=mxgraph.aws4.group;grIcon=mxgraph.aws4.group_region;strokeColor=#00A4A6;fillColor=default;verticalAlign=top;align=left;spacingLeft=30;fontColor=#147EBA;dashed=1;shadow=1;" vertex="1" parent="E6VRsFR_yzMTvi04gVFN-2">
          <mxGeometry x="40" y="40" width="1160" height="840" as="geometry" />
        </mxCell>
        <mxCell id="E6VRsFR_yzMTvi04gVFN-4" value="Availability Zone" style="fillColor=default;strokeColor=#147EBA;dashed=1;verticalAlign=top;fontStyle=0;fontColor=#147EBA;whiteSpace=wrap;html=1;shadow=1;movable=0;resizable=0;rotatable=0;deletable=0;editable=0;locked=1;connectable=0;" vertex="1" parent="E6VRsFR_yzMTvi04gVFN-3">
          <mxGeometry x="40" y="40" width="1070" height="760" as="geometry" />
        </mxCell>
        <mxCell id="E6VRsFR_yzMTvi04gVFN-5" value="&lt;font style=&quot;font-size: 17px;&quot;&gt;API Gateway&lt;/font&gt;" style="sketch=0;points=[[0,0,0],[0.25,0,0],[0.5,0,0],[0.75,0,0],[1,0,0],[0,1,0],[0.25,1,0],[0.5,1,0],[0.75,1,0],[1,1,0],[0,0.25,0],[0,0.5,0],[0,0.75,0],[1,0.25,0],[1,0.5,0],[1,0.75,0]];outlineConnect=0;fontColor=#232F3E;fillColor=#E7157B;strokeColor=#ffffff;dashed=0;verticalLabelPosition=bottom;verticalAlign=top;align=center;html=1;fontSize=12;fontStyle=0;aspect=fixed;shape=mxgraph.aws4.resourceIcon;resIcon=mxgraph.aws4.api_gateway;" vertex="1" parent="E6VRsFR_yzMTvi04gVFN-3">
          <mxGeometry x="79" y="309" width="100" height="100" as="geometry" />
        </mxCell>
        <mxCell id="E6VRsFR_yzMTvi04gVFN-6" value="&lt;span style=&quot;font-size: 17px;&quot;&gt;Hello World&lt;/span&gt;&lt;div&gt;&lt;span style=&quot;font-size: 17px;&quot;&gt;Handler&lt;/span&gt;&lt;/div&gt;" style="sketch=0;points=[[0,0,0],[0.25,0,0],[0.5,0,0],[0.75,0,0],[1,0,0],[0,1,0],[0.25,1,0],[0.5,1,0],[0.75,1,0],[1,1,0],[0,0.25,0],[0,0.5,0],[0,0.75,0],[1,0.25,0],[1,0.5,0],[1,0.75,0]];outlineConnect=0;fontColor=#232F3E;fillColor=#ED7100;strokeColor=#ffffff;dashed=0;verticalLabelPosition=bottom;verticalAlign=top;align=center;html=1;fontSize=12;fontStyle=0;aspect=fixed;shape=mxgraph.aws4.resourceIcon;resIcon=mxgraph.aws4.lambda;" vertex="1" parent="E6VRsFR_yzMTvi04gVFN-3">
          <mxGeometry x="493" y="309.59" width="100" height="100" as="geometry" />
        </mxCell>
        <mxCell id="E6VRsFR_yzMTvi04gVFN-8" value="&lt;font style=&quot;font-size: 17px;&quot;&gt;Cloudwatch&lt;/font&gt;" style="sketch=0;points=[[0,0,0],[0.25,0,0],[0.5,0,0],[0.75,0,0],[1,0,0],[0,1,0],[0.25,1,0],[0.5,1,0],[0.75,1,0],[1,1,0],[0,0.25,0],[0,0.5,0],[0,0.75,0],[1,0.25,0],[1,0.5,0],[1,0.75,0]];points=[[0,0,0],[0.25,0,0],[0.5,0,0],[0.75,0,0],[1,0,0],[0,1,0],[0.25,1,0],[0.5,1,0],[0.75,1,0],[1,1,0],[0,0.25,0],[0,0.5,0],[0,0.75,0],[1,0.25,0],[1,0.5,0],[1,0.75,0]];outlineConnect=0;fontColor=#232F3E;fillColor=#E7157B;strokeColor=#ffffff;dashed=0;verticalLabelPosition=bottom;verticalAlign=top;align=center;html=1;fontSize=12;fontStyle=0;aspect=fixed;shape=mxgraph.aws4.resourceIcon;resIcon=mxgraph.aws4.cloudwatch_2;" vertex="1" parent="E6VRsFR_yzMTvi04gVFN-3">
          <mxGeometry x="830" y="309" width="100" height="100" as="geometry" />
        </mxCell>
        <mxCell id="E6VRsFR_yzMTvi04gVFN-10" value="" style="endArrow=classic;html=1;rounded=0;flowAnimation=1;strokeWidth=2;" edge="1" parent="E6VRsFR_yzMTvi04gVFN-3" source="E6VRsFR_yzMTvi04gVFN-5" target="E6VRsFR_yzMTvi04gVFN-6">
          <mxGeometry width="50" height="50" relative="1" as="geometry">
            <mxPoint x="199" y="360" as="sourcePoint" />
            <mxPoint x="404" y="365.92859999999996" as="targetPoint" />
          </mxGeometry>
        </mxCell>
        <mxCell id="E6VRsFR_yzMTvi04gVFN-22" value="&lt;div style=&quot;line-height: 90%;&quot;&gt;&lt;font style=&quot;font-size: 21px; line-height: 90%;&quot;&gt;Invoke&lt;/font&gt;&lt;div&gt;&lt;font style=&quot;font-size: 21px; line-height: 90%;&quot;&gt;&quot;Hello World&quot;&amp;nbsp;&lt;/font&gt;&lt;/div&gt;&lt;div&gt;&lt;font style=&quot;font-size: 21px; line-height: 90%;&quot;&gt;Script&lt;/font&gt;&lt;/div&gt;&lt;/div&gt;" style="edgeLabel;html=1;align=center;verticalAlign=middle;resizable=0;points=[];fontFamily=Comic Sans MS;" vertex="1" connectable="0" parent="E6VRsFR_yzMTvi04gVFN-10">
          <mxGeometry x="-0.1073" y="2" relative="1" as="geometry">
            <mxPoint x="10" y="39" as="offset" />
          </mxGeometry>
        </mxCell>
        <mxCell id="E6VRsFR_yzMTvi04gVFN-13" value="&lt;font style=&quot;font-size: 18px;&quot;&gt;Function&amp;nbsp;&lt;/font&gt;&lt;div&gt;&lt;font style=&quot;font-size: 18px;&quot;&gt;Policy&lt;/font&gt;&lt;/div&gt;" style="sketch=0;outlineConnect=0;fontColor=#232F3E;gradientColor=none;fillColor=#DD344C;strokeColor=none;dashed=0;verticalLabelPosition=bottom;verticalAlign=top;align=center;html=1;fontSize=12;fontStyle=0;aspect=fixed;pointerEvents=1;shape=mxgraph.aws4.role;" vertex="1" parent="E6VRsFR_yzMTvi04gVFN-3">
          <mxGeometry x="270" y="500.59000000000003" width="100" height="60" as="geometry" />
        </mxCell>
        <mxCell id="E6VRsFR_yzMTvi04gVFN-14" value="&lt;font style=&quot;font-size: 18px;&quot;&gt;Function&amp;nbsp;&lt;/font&gt;&lt;div&gt;&lt;font style=&quot;font-size: 18px;&quot;&gt;Role&lt;/font&gt;&lt;/div&gt;" style="sketch=0;outlineConnect=0;fontColor=#232F3E;gradientColor=none;fillColor=#DD344C;strokeColor=none;dashed=0;verticalLabelPosition=bottom;verticalAlign=top;align=center;html=1;fontSize=12;fontStyle=0;aspect=fixed;pointerEvents=1;shape=mxgraph.aws4.role;" vertex="1" parent="E6VRsFR_yzMTvi04gVFN-3">
          <mxGeometry x="493" y="500.5899999999999" width="100" height="56.41" as="geometry" />
        </mxCell>
        <mxCell id="E6VRsFR_yzMTvi04gVFN-20" value="" style="endArrow=classic;html=1;rounded=0;flowAnimation=1;strokeWidth=2;startArrow=classic;startFill=1;" edge="1" parent="E6VRsFR_yzMTvi04gVFN-3" source="E6VRsFR_yzMTvi04gVFN-6" target="E6VRsFR_yzMTvi04gVFN-14">
          <mxGeometry width="50" height="50" relative="1" as="geometry">
            <mxPoint x="540" y="457" as="sourcePoint" />
            <mxPoint x="721" y="470.59" as="targetPoint" />
          </mxGeometry>
        </mxCell>
        <mxCell id="E6VRsFR_yzMTvi04gVFN-23" value="&lt;div&gt;&lt;span style=&quot;background-color: transparent; color: light-dark(rgb(0, 0, 0), rgb(255, 255, 255));&quot;&gt;&lt;font style=&quot;font-size: 18px;&quot;&gt;&lt;i&gt;• Logs Lambda output&amp;nbsp;&amp;nbsp;&lt;/i&gt;&lt;/font&gt;&lt;/span&gt;&lt;/div&gt;&lt;div&gt;&lt;font style=&quot;font-size: 18px;&quot;&gt;&lt;i&gt;• Tracks function metrics&amp;nbsp;&amp;nbsp;&lt;/i&gt;&lt;/font&gt;&lt;/div&gt;&lt;div&gt;&lt;font style=&quot;font-size: 18px;&quot;&gt;&lt;i&gt;• Supports basic monitoring&amp;nbsp;&amp;nbsp;&lt;/i&gt;&lt;/font&gt;&lt;/div&gt;&lt;div&gt;&lt;br&gt;&lt;/div&gt;" style="text;html=1;align=left;verticalAlign=middle;whiteSpace=wrap;rounded=0;fontFamily=Comic Sans MS;" vertex="1" parent="E6VRsFR_yzMTvi04gVFN-3">
          <mxGeometry x="840" y="480" width="250" height="100" as="geometry" />
        </mxCell>
        <mxCell id="E6VRsFR_yzMTvi04gVFN-18" value="" style="endArrow=classic;html=1;rounded=0;flowAnimation=1;strokeWidth=2;exitX=1;exitY=0.5;exitDx=0;exitDy=0;exitPerimeter=0;" edge="1" parent="E6VRsFR_yzMTvi04gVFN-3" source="E6VRsFR_yzMTvi04gVFN-6" target="E6VRsFR_yzMTvi04gVFN-8">
          <mxGeometry width="50" height="50" relative="1" as="geometry">
            <mxPoint x="639.5" y="358.38" as="sourcePoint" />
            <mxPoint x="760" y="475" as="targetPoint" />
          </mxGeometry>
        </mxCell>
        <mxCell id="E6VRsFR_yzMTvi04gVFN-51" value="&lt;div&gt;&lt;span style=&quot;font-size: 18px;&quot;&gt;&lt;i&gt;&lt;font face=&quot;Comic Sans MS&quot;&gt;User traffic should flow top-down&lt;/font&gt;&lt;/i&gt;&lt;/span&gt;&lt;/div&gt;" style="text;html=1;align=left;verticalAlign=middle;whiteSpace=wrap;rounded=0;" vertex="1" parent="E6VRsFR_yzMTvi04gVFN-3">
          <mxGeometry x="79" y="233" width="151" height="60" as="geometry" />
        </mxCell>
        <mxCell id="E6VRsFR_yzMTvi04gVFN-52" value="&lt;div&gt;&lt;span style=&quot;font-size: 18px;&quot;&gt;&lt;i&gt;&lt;font face=&quot;Comic Sans MS&quot;&gt;Function name should be explicit.&lt;/font&gt;&lt;/i&gt;&lt;/span&gt;&lt;/div&gt;" style="text;html=1;align=left;verticalAlign=middle;whiteSpace=wrap;rounded=0;" vertex="1" parent="E6VRsFR_yzMTvi04gVFN-3">
          <mxGeometry x="490" y="233" width="160" height="60" as="geometry" />
        </mxCell>
        <mxCell id="E6VRsFR_yzMTvi04gVFN-9" value="" style="endArrow=classic;html=1;rounded=0;flowAnimation=1;strokeWidth=2;" edge="1" parent="E6VRsFR_yzMTvi04gVFN-2">
          <mxGeometry width="50" height="50" relative="1" as="geometry">
            <mxPoint x="-161" y="397.77" as="sourcePoint" />
            <mxPoint x="119" y="400.24" as="targetPoint" />
          </mxGeometry>
        </mxCell>
        <mxCell id="E6VRsFR_yzMTvi04gVFN-21" value="&lt;font style=&quot;font-size: 21px;&quot;&gt;Users send&lt;/font&gt;&lt;div&gt;&lt;font style=&quot;font-size: 21px; line-height: 90%;&quot;&gt;requests&lt;/font&gt;&lt;/div&gt;" style="edgeLabel;html=1;align=center;verticalAlign=middle;resizable=0;points=[];fontFamily=Comic Sans MS;" vertex="1" connectable="0" parent="E6VRsFR_yzMTvi04gVFN-9">
          <mxGeometry x="-0.343" y="3" relative="1" as="geometry">
            <mxPoint x="-9" y="30" as="offset" />
          </mxGeometry>
        </mxCell>
        <mxCell id="E6VRsFR_yzMTvi04gVFN-16" value="&lt;div style=&quot;line-height: 90%;&quot;&gt;&lt;h1 style=&quot;margin-top: 0px; line-height: 90%;&quot;&gt;&lt;u style=&quot;background-color: light-dark(#ffffff, var(--ge-dark-color, #121212));&quot;&gt;&lt;font style=&quot;font-size: 26px;&quot;&gt;Atlas Project.&lt;/font&gt;&lt;/u&gt;&lt;/h1&gt;&lt;div&gt;&lt;font style=&quot;line-height: 90%; font-size: 23px;&quot;&gt;&lt;b style=&quot;&quot;&gt;&lt;span style=&quot;background-color: light-dark(#ffffff, var(--ge-dark-color, #121212));&quot;&gt;Chapter 1.&lt;/span&gt;&lt;/b&gt;&lt;/font&gt;&lt;/div&gt;&lt;p&gt;&lt;font style=&quot;line-height: 90%;&quot;&gt;&lt;span style=&quot;background-color: light-dark(#ffffff, var(--ge-dark-color, #121212));&quot;&gt;&lt;font style=&quot;font-size: 22px;&quot;&gt;Simple Lamda Function:&lt;/font&gt;&lt;span style=&quot;font-size: 20px;&quot;&gt;&amp;nbsp;&lt;/span&gt;&lt;/span&gt;&lt;/font&gt;&lt;/p&gt;&lt;p&gt;&lt;b&gt;&lt;font style=&quot;line-height: 90%; font-size: 20px;&quot;&gt;&lt;span style=&quot;background-color: light-dark(#ffffff, var(--ge-dark-color, #121212));&quot;&gt;&quot;Hello World&quot;&lt;/span&gt;&lt;/font&gt;&lt;/b&gt;&lt;/p&gt;&lt;/div&gt;" style="text;html=1;whiteSpace=wrap;overflow=hidden;rounded=0;" vertex="1" parent="1">
          <mxGeometry x="50" y="40" width="310" height="140" as="geometry" />
        </mxCell>
        <mxCell id="E6VRsFR_yzMTvi04gVFN-1" value="&lt;font style=&quot;font-size: 17px;&quot;&gt;Users&lt;/font&gt;" style="sketch=0;outlineConnect=0;fontColor=#232F3E;gradientColor=none;fillColor=#232F3D;strokeColor=none;dashed=0;verticalLabelPosition=bottom;verticalAlign=top;align=center;html=1;fontSize=12;fontStyle=0;aspect=fixed;pointerEvents=1;shape=mxgraph.aws4.users;" vertex="1" parent="1">
          <mxGeometry x="80" y="429" width="70" height="70" as="geometry" />
        </mxCell>
        <mxCell id="E6VRsFR_yzMTvi04gVFN-19" value="" style="endArrow=classic;html=1;rounded=0;flowAnimation=1;strokeWidth=2;startArrow=classic;startFill=1;" edge="1" parent="1" target="E6VRsFR_yzMTvi04gVFN-13">
          <mxGeometry width="50" height="50" relative="1" as="geometry">
            <mxPoint x="115" y="526" as="sourcePoint" />
            <mxPoint x="439" y="712.47" as="targetPoint" />
            <Array as="points">
              <mxPoint x="115" y="651" />
            </Array>
          </mxGeometry>
        </mxCell>
      </root>
    </mxGraphModel>
  </diagram>
</mxfile>
